<svg width="64" height="64" fill="none" xmlns="http://www.w3.org/2000/svg"><path d="M20 11.227l12 6.933 12-6.933M20 52.773v-13.84L8 32m48 0l-12 6.933v13.84" stroke="#00BBF0" stroke-width="2" stroke-linecap="round" stroke-linejoin="round"/><path d="M8.72 18.56L32 32.027 55.28 18.56M32 58.88V32" stroke="#fff" stroke-width="2" stroke-linecap="round" stroke-linejoin="round"/><path d="M56 42.667V21.333a5.333 5.333 0 00-2.667-4.613L34.667 6.053a5.334 5.334 0 00-5.334 0L10.667 16.72A5.332 5.332 0 008 21.333v21.334a5.333 5.333 0 002.667 4.613l18.666 10.667a5.333 5.333 0 005.334 0L53.333 47.28A5.332 5.332 0 0056 42.667z" stroke="#fff" stroke-width="2" stroke-linecap="round" stroke-linejoin="round"/></svg>