<svg width="375" height="373" viewBox="0 0 375 373" fill="none" xmlns="http://www.w3.org/2000/svg">
<g clip-path="url(#clip0_34_112)">
<path d="M148.396 56.3341C148.048 56.1618 147.668 56.0628 147.281 56.0434C146.894 56.024 146.508 56.0847 146.147 56.2216C145.787 56.3585 145.46 56.5685 145.187 56.8385C144.914 57.1084 144.701 57.4323 144.563 57.7895L78.03 228.97C77.828 229.491 77.7909 230.063 77.9235 230.609C78.0561 231.155 78.3522 231.65 78.7727 232.029L137.624 285.193C138.012 285.544 138.491 285.781 139.006 285.877L216.959 300.473C217.515 300.578 218.089 300.514 218.604 300.288C219.118 300.062 219.551 299.687 219.843 299.21L315.691 142.55C315.891 142.223 316.019 141.857 316.069 141.477C316.118 141.096 316.087 140.709 315.977 140.339C315.868 139.969 315.682 139.625 315.432 139.329C315.182 139.033 314.873 138.791 314.525 138.618L148.396 56.3341ZM148.683 62.6424L309.333 142.213L216.052 294.677L140.767 280.583L83.9329 229.238L148.683 62.6424ZM224.103 112.331C223.77 112.166 223.387 112.138 223.036 112.254C222.686 112.369 222.398 112.619 222.235 112.947L217.331 122.85C217.247 123.013 217.197 123.191 217.184 123.374C217.17 123.557 217.194 123.741 217.252 123.916C217.311 124.09 217.404 124.252 217.526 124.391C217.649 124.53 217.797 124.645 217.963 124.727C218.129 124.809 218.31 124.858 218.495 124.871C218.68 124.884 218.865 124.86 219.039 124.801C219.214 124.742 219.375 124.649 219.512 124.527C219.649 124.406 219.761 124.258 219.84 124.093L224.131 115.428L288.525 147.322L208.559 278.35L197.4 276.261C197.216 276.218 197.025 276.212 196.84 276.244C196.654 276.276 196.477 276.345 196.32 276.447C196.163 276.548 196.028 276.681 195.925 276.836C195.821 276.991 195.75 277.166 195.717 277.35C195.684 277.534 195.689 277.723 195.731 277.906C195.773 278.089 195.853 278.262 195.964 278.414C196.075 278.566 196.216 278.695 196.378 278.792C196.54 278.89 196.72 278.954 196.908 278.98L209.019 281.252C209.297 281.303 209.584 281.27 209.84 281.156C210.097 281.042 210.312 280.854 210.458 280.615L291.702 147.487C291.802 147.323 291.866 147.141 291.89 146.951C291.915 146.76 291.899 146.567 291.844 146.382C291.789 146.198 291.696 146.026 291.571 145.878C291.446 145.73 291.292 145.61 291.118 145.524L224.103 112.331ZM215.509 129.632C215.343 129.553 215.164 129.507 214.981 129.496C214.797 129.486 214.614 129.511 214.442 129.571C214.269 129.631 214.111 129.725 213.975 129.846C213.84 129.967 213.73 130.113 213.652 130.277L210.488 136.665L167.28 115.264C167.109 115.179 166.922 115.129 166.732 115.118C166.542 115.107 166.352 115.134 166.173 115.199C165.995 115.263 165.832 115.363 165.695 115.493C165.558 115.623 165.45 115.779 165.376 115.953L140.143 175.498C140.006 175.823 139.999 176.189 140.125 176.521C140.251 176.853 140.5 177.126 140.82 177.284L181.863 197.613L202.019 207.596L191.015 226.497L170.498 223.712L180.052 204.423C180.136 204.259 180.187 204.079 180.2 203.894C180.213 203.709 180.188 203.523 180.128 203.347C180.067 203.171 179.971 203.008 179.846 202.869C179.721 202.729 179.57 202.616 179.4 202.535C179.234 202.456 179.054 202.41 178.871 202.4C178.688 202.389 178.505 202.415 178.333 202.475C178.16 202.535 178.001 202.628 177.866 202.749C177.73 202.87 177.621 203.017 177.543 203.181L167.989 222.469L153.327 207.825L157.989 196.133C158.118 195.811 158.119 195.45 157.992 195.124C157.866 194.798 157.62 194.53 157.305 194.373L137.761 184.693C137.588 184.607 137.4 184.557 137.208 184.546C137.016 184.536 136.824 184.565 136.644 184.631C136.464 184.698 136.301 184.8 136.164 184.933C136.027 185.066 135.919 185.225 135.848 185.401L124.669 212.887C124.567 213.14 124.543 213.419 124.6 213.687C124.657 213.956 124.793 214.202 124.99 214.395L156.658 245.345L145.641 267.588C145.547 267.78 145.498 267.991 145.5 268.205C145.502 268.419 145.554 268.63 145.651 268.822C145.749 269.014 145.89 269.181 146.063 269.311C146.237 269.441 146.437 269.529 146.65 269.569L173.664 274.627C173.848 274.67 174.038 274.676 174.224 274.644C174.409 274.613 174.586 274.544 174.743 274.442C174.901 274.34 175.035 274.208 175.139 274.052C175.242 273.897 175.313 273.722 175.346 273.538C175.38 273.354 175.375 273.165 175.333 272.983C175.29 272.8 175.211 272.627 175.1 272.475C174.988 272.322 174.847 272.194 174.685 272.096C174.523 271.999 174.343 271.935 174.156 271.908L148.962 267.192L159.167 246.588L202.978 253.023C203.254 253.063 203.535 253.02 203.785 252.9C204.034 252.78 204.241 252.589 204.379 252.35L235.263 198.597C235.357 198.433 235.415 198.252 235.435 198.064C235.455 197.876 235.436 197.686 235.38 197.505C235.323 197.324 235.23 197.157 235.105 197.012C234.981 196.867 234.829 196.749 234.658 196.665L193.895 176.475L199.156 165.851C199.24 165.687 199.29 165.507 199.302 165.323C199.315 165.138 199.29 164.953 199.229 164.777C199.168 164.601 199.072 164.439 198.948 164.3C198.823 164.161 198.672 164.048 198.503 163.968C198.168 163.809 197.785 163.787 197.438 163.907C197.09 164.027 196.806 164.279 196.647 164.609L191.386 175.232L171.328 165.297L178.378 147.858L200.965 159.046L244.453 180.585C244.769 180.741 245.132 180.774 245.469 180.676C245.806 180.578 246.092 180.358 246.27 180.058L257.287 161.5C257.383 161.337 257.445 161.155 257.468 160.966C257.49 160.777 257.473 160.585 257.418 160.403C257.362 160.22 257.27 160.05 257.145 159.903C257.021 159.757 256.868 159.637 256.696 159.551L212.997 137.908L216.161 131.52C216.246 131.355 216.296 131.175 216.309 130.99C216.322 130.805 216.298 130.619 216.237 130.443C216.176 130.267 216.08 130.105 215.955 129.965C215.83 129.826 215.679 129.712 215.509 129.632ZM167.382 118.397L210.516 139.762L254.117 161.357L244.513 177.532L202.191 156.57L178.247 144.71C178.075 144.625 177.887 144.576 177.695 144.566C177.503 144.556 177.312 144.585 177.132 144.651C176.953 144.718 176.791 144.821 176.654 144.953C176.517 145.086 176.41 145.245 176.339 145.421L168.253 165.43C168.122 165.754 168.12 166.116 168.247 166.444C168.375 166.772 168.622 167.041 168.94 167.198L191.213 178.23C191.337 178.318 191.474 178.386 191.62 178.431L232.098 198.48L202.42 250.145L159.003 243.767L127.608 213.09L137.883 187.836L154.917 196.274L150.394 207.624C150.294 207.875 150.27 208.15 150.327 208.415C150.383 208.681 150.516 208.925 150.71 209.117L167.252 225.645C167.386 225.827 167.562 225.975 167.765 226.076C167.968 226.176 168.192 226.227 168.418 226.223L191.59 229.366C191.863 229.402 192.14 229.357 192.385 229.238C192.631 229.119 192.835 228.93 192.972 228.695L205.184 207.724C205.279 207.561 205.339 207.38 205.36 207.192C205.381 207.004 205.364 206.813 205.308 206.631C205.252 206.45 205.159 206.281 205.035 206.135C204.912 205.99 204.759 205.871 204.588 205.785L183.089 195.137L143.228 175.394L167.382 118.397ZM189.054 274.741C188.939 274.688 188.818 274.65 188.694 274.629L182.991 273.563C182.807 273.519 182.617 273.514 182.431 273.545C182.245 273.577 182.069 273.646 181.911 273.748C181.754 273.85 181.62 273.982 181.516 274.137C181.412 274.293 181.342 274.468 181.309 274.652C181.275 274.835 181.28 275.024 181.322 275.207C181.365 275.39 181.444 275.563 181.555 275.715C181.666 275.868 181.807 275.996 181.97 276.094C182.132 276.191 182.312 276.255 182.499 276.282L188.202 277.348C188.536 277.415 188.882 277.358 189.175 277.189C189.468 277.02 189.688 276.75 189.792 276.43C189.897 276.109 189.88 275.761 189.744 275.45C189.608 275.139 189.362 274.887 189.054 274.741Z" fill="url(#paint0_linear_34_112)" fill-opacity="0.9"/>
</g>
<defs>
<linearGradient id="paint0_linear_34_112" x1="231.461" y1="97.4763" x2="138.267" y2="285.631" gradientUnits="userSpaceOnUse">
<stop stop-color="#53C6E7" stop-opacity="0.38"/>
<stop offset="1" stop-color="#53C6E7" stop-opacity="0.1"/>
</linearGradient>
<clipPath id="clip0_34_112">
<rect width="280" height="276.277" fill="white" transform="translate(123.173 0.678101) rotate(26.3493)"/>
</clipPath>
</defs>
</svg>
